# xmcd
#
# Track frame offsets: 
#        150
#        14833
#        40678
#        57736
#        85985
#        117976
#        135485
#        151499
#        188991
#        204662
#        246577
#        262654
#        291045
#
# Disc length: 4259 seconds
#
# Revision: 0
# Processed by: cddbd v1.5.2PL0 Copyright (c) Steve Scherf et al.
# Submitted via: ExactAudioCopy v1.0b3
#
DISCID=c010a10d
DTITLE=Various Artist - The Best In Trance Vol. 3 - CD 2
DYEAR=1900
DGENRE=
TTITLE0=ATB - Believe In Me (Single Edit)
TTITLE1=DJ Jean - Every Single Day (Club Mix)
TTITLE2=Symbios - Beauty and The Beast (Radio Edit)
TTITLE3=DJ Dag Project - On My Own (Butcher and Dag Mix)
TTITLE4=York Feat. Angelina - Iceflowers (Aly and Fila Rmx)
TTITLE5=JMK! - Molecules
TTITLE6=Beat Control - Amnesia (Radio Mix)
TTITLE7=The Lost Brothers - Cry Little Sister (Original Club Mix)
TTITLE8=Clokx - Feelings (Radio Edit)
TTITLE9=Plastic Boy - From Here To Nowhere
TTITLE10=Ole Van Dansk Vs. Danny Age - Leave 2Day (Radio Edit)
TTITLE11=Di Fumetti - Where Is The Love (DJ Andy Garcia Mix)
TTITLE12=Mr. Sam - Lyteo (Rank 1 Remix)
EXTD=
EXTT0=
EXTT1=
EXTT2=
EXTT3=
EXTT4=
EXTT5=
EXTT6=
EXTT7=
EXTT8=
EXTT9=
EXTT10=
EXTT11=
EXTT12=
PLAYORDER=
